<svg width="24" height="25" viewBox="0 0 24 25" fill="none" xmlns="http://www.w3.org/2000/svg">
<path fill-rule="evenodd" clip-rule="evenodd" d="M3.46997 4.75H4.46997L4.51997 4.76C5.90613 4.78689 7.1173 5.70334 7.51997 7.03L7.71997 7.72H18.15C19.071 7.72419 19.9456 8.12503 20.55 8.82C21.1527 9.51937 21.4194 10.4473 21.28 11.36L20.68 15.5C20.4801 17.0869 19.1393 18.2825 17.54 18.3H11.66C10.2553 18.2948 9.01821 17.3741 8.60997 16.03L6.07997 7.5C5.88623 6.76818 5.22697 6.25633 4.46997 6.25H3.46997C3.05576 6.25 2.71997 5.91421 2.71997 5.5C2.71997 5.08579 3.05576 4.75 3.46997 4.75ZM10.05 15.55C10.2622 16.262 10.917 16.75 11.66 16.75H17.54C18.3676 16.741 19.0686 16.1372 19.2 15.32L19.8 11.17C19.8817 10.6869 19.7485 10.1923 19.4352 9.81558C19.1219 9.43889 18.6598 9.21772 18.17 9.21H8.16997L10.05 15.55Z" fill="#FAFAFA"/>
<path d="M11.43 19.5C10.8777 19.5 10.43 19.9477 10.43 20.5C10.43 21.0523 10.8777 21.5 11.43 21.5C11.9823 21.5 12.43 21.0523 12.43 20.5C12.43 19.9477 11.9823 19.5 11.43 19.5Z" fill="#FAFAFA"/>
<path d="M17.43 19.5C16.8777 19.5 16.43 19.9477 16.43 20.5C16.43 21.0523 16.8777 21.5 17.43 21.5C17.9823 21.5 18.43 21.0523 18.43 20.5C18.43 19.9477 17.9823 19.5 17.43 19.5Z" fill="#FAFAFA"/>
</svg>
