<svg width="24" height="25" viewBox="0 0 24 25" fill="none" xmlns="http://www.w3.org/2000/svg">
<path d="M12.1 21.3C11.6 21.3 11 21.1 10.6 20.7C4.1 15 4 14.9 4 14.8L3.9 14.7C2.7 13.5 2 11.8 2 10.1V9.9C2.1 6.3 5 3.5 8.6 3.5C9.7 3.5 11.2 4.1 12.1 5.3C13 4.1 14.6 3.5 15.7 3.5C19.3 3.5 22.1 6.3 22.3 9.9V10.1C22.3 11.9 21.6 13.5 20.4 14.8L20.3 14.9C20.2 15 19.4 15.7 13.7 20.8C13.2 21.1 12.7 21.3 12.1 21.3ZM5.5 14.5C5.9 14.9 7.9 16.3 11.6 19.5C11.9 19.8 12.3 19.8 12.6 19.5C16.4 16.1 18.6 14.2 19.1 13.8L19.2 13.7C20.2 12.7 20.7 11.4 20.7 10.1V9.9C20.6 7.1 18.4 5 15.6 5C14.9 5 13.5 5.5 13 6.6C12.8 7 12.4 7.2 12 7.2C11.6 7.2 11.2 7 11 6.6C10.5 5.6 9.2 5 8.4 5C5.7 5 3.4 7.2 3.3 9.9V10.2C3.3 11.5 3.9 12.8 4.8 13.7L5.5 14.5Z" fill="#FAFAFA"/>
</svg>
