<svg width="24" height="25" viewBox="0 0 24 25" fill="none" xmlns="http://www.w3.org/2000/svg">
<path fill-rule="evenodd" clip-rule="evenodd" d="M9.26953 3.39048C10.8959 2.20317 13.1041 2.20317 14.7305 3.39048L20.29 7.49986C21.3566 8.27506 21.9913 9.51145 22 10.8299V18.2704C21.9418 20.5888 20.0757 22.4374 17.7832 22.4999H6.2168C3.92434 22.4374 2.05816 20.5888 2 18.2704V10.8407C2.0061 9.51632 2.64517 8.27399 3.71973 7.49986L9.26953 3.39048ZM13.8398 4.60044C12.7438 3.80007 11.2562 3.80007 10.1602 4.60044L4.61035 8.70005C3.91852 9.19405 3.50534 9.9906 3.5 10.8407V18.2704C3.56504 19.8328 4.87742 21.0506 6.44043 20.9999H17.5596C19.1247 21.0561 20.4403 19.8353 20.5 18.2704V10.8299C20.4947 9.98544 20.0808 9.19614 19.3896 8.71079L13.8398 4.60044ZM16.5 16.2508C16.9141 16.2508 17.2497 16.5859 17.25 16.9999C17.25 17.4141 16.9142 17.7499 16.5 17.7499H7.5C7.08579 17.7499 6.75 17.4141 6.75 16.9999C6.75026 16.5859 7.08595 16.2508 7.5 16.2508H16.5Z" fill="#FAFAFA"/>
</svg>
