<svg width="24" height="25" viewBox="0 0 24 25" fill="none" xmlns="http://www.w3.org/2000/svg">
<path d="M9.5459 4.30292C11.0064 3.23199 12.9936 3.23199 14.4541 4.30292L19.4561 7.99823C20.4199 8.69591 20.9934 9.81132 21 11.0012V17.6896C20.9399 19.7671 19.2664 21.4206 17.2119 21.4787H6.79785C4.73939 21.4257 3.06009 19.771 3 17.6896V11.0012C3.00659 9.81132 3.58012 8.69591 4.54395 7.99823L9.5459 4.30292ZM7.7373 16.051C7.34494 16.051 7.02645 16.3686 7.02637 16.7609C7.02637 17.1533 7.34489 17.4719 7.7373 17.4719H16.2627C16.6551 17.4719 16.9736 17.1533 16.9736 16.7609C16.9736 16.3686 16.6551 16.051 16.2627 16.051H7.7373Z" fill="#FAFAFA"/>
</svg>
