<svg width="24" height="24" viewBox="0 0 24 24" fill="none" xmlns="http://www.w3.org/2000/svg">
<path d="M12.4067 2C16.8266 2.00001 20.4065 5.18982 20.4067 9.13965V13.96C20.4067 14.5446 20.6626 15.1005 21.1069 15.4805C22.6164 16.8305 21.5465 19.1299 19.4067 19.1299H15.6069C15.1221 20.4803 13.8415 21.3808 12.4067 21.3809C10.9719 21.3809 9.69136 20.4803 9.20652 19.1299H5.40671C3.26687 19.1299 2.197 16.8305 3.70652 15.4805C4.1508 15.1005 4.40675 14.5446 4.40671 13.96V9.13965C4.40693 5.18981 7.98685 2 12.4067 2ZM10.8862 19.1299C11.2501 19.6009 11.8115 19.8776 12.4067 19.8799C12.9888 19.8699 13.5339 19.5934 13.8862 19.1299H10.8862ZM12.4165 3.5C8.83671 3.5001 5.9167 6.02987 5.91648 9.13965V13.96C5.90551 14.9696 5.46973 15.9275 4.71629 16.5996C4.53578 16.7139 4.4609 16.9399 4.5366 17.1396C4.69689 17.4676 5.04315 17.6628 5.40671 17.6299H19.4165C19.78 17.6628 20.1263 17.4676 20.2866 17.1396C20.3643 16.9422 20.2936 16.7169 20.1167 16.5996C19.3634 15.9275 18.9274 14.9695 18.9165 13.96V9.13965C18.9163 6.02981 15.9963 3.5 12.4165 3.5Z" fill="#0A0909"/>
</svg>
