<svg width="25" height="25" viewBox="0 0 25 25" fill="none" xmlns="http://www.w3.org/2000/svg">
<path fill-rule="evenodd" clip-rule="evenodd" d="M20.0801 17.21L20.3201 18.35C20.5475 19.3356 20.323 20.3713 19.7077 21.1742C19.0925 21.9771 18.1509 22.4633 17.1401 22.5H7.86009C6.84927 22.4633 5.90766 21.9771 5.29244 21.1742C4.67722 20.3713 4.45266 19.3356 4.68009 18.35L4.92009 17.21C5.19613 15.6668 6.52272 14.5327 8.09009 14.5H16.9101C18.4775 14.5327 19.8041 15.6668 20.0801 17.21ZM17.1401 20.99C17.6479 20.9841 18.1258 20.7489 18.4401 20.35V20.36C18.8258 19.8762 18.9761 19.2458 18.8501 18.64L18.6101 17.5C18.4769 16.6552 17.7647 16.0226 16.9101 15.99H8.0901C7.23546 16.0226 6.52326 16.6552 6.3901 17.5L6.1501 18.64C6.02725 19.2426 6.17736 19.8687 6.5601 20.35C6.87443 20.7489 7.35231 20.9841 7.8601 20.99H17.1401Z" fill="#FAFAFA"/>
<path fill-rule="evenodd" clip-rule="evenodd" d="M13.0001 12.5H12.0001C9.79094 12.5 8.00008 10.7092 8.00008 8.50001V5.86001C7.99741 4.96807 8.35056 4.11189 8.98126 3.48119C9.61196 2.85049 10.4681 2.49735 11.3601 2.50001H13.6401C14.532 2.49735 15.3882 2.85049 16.0189 3.48119C16.6496 4.11189 17.0027 4.96807 17.0001 5.86001V8.50001C17.0001 10.7092 15.2092 12.5 13.0001 12.5ZM11.3601 4.00002C10.3328 4.00002 9.50008 4.83277 9.50008 5.86001V8.50001C9.50008 9.88073 10.6194 11 12.0001 11H13.0001C14.3808 11 15.5001 9.88073 15.5001 8.50001V5.86001C15.5001 5.36671 15.3041 4.89361 14.9553 4.5448C14.6065 4.19598 14.1334 4.00002 13.6401 4.00002H11.3601Z" fill="#FAFAFA"/>
</svg>
