<svg width="228" height="97" viewBox="0 0 228 97" fill="none" xmlns="http://www.w3.org/2000/svg">
<rect x="1" y="1" width="226" height="95" rx="47.5" stroke="#FAFAFA" stroke-width="2"/>
<path d="M101.906 24V45.8216H125.616V24H141.37C146.112 24 150.17 24.9826 153.544 26.9443C156.917 28.8902 159.505 31.6887 161.303 35.3412C163.101 38.9776 164 43.3323 164 48.404C164 53.5079 163.093 57.9031 161.279 61.5873C159.465 65.2561 156.821 68.0779 153.352 70.0555C149.883 72.0175 145.667 73 140.702 73H125.616V51.0851H101.906V73H94.8079V51.0851H69.9215V73H64V36.0704H69.9215V45.8216H94.8079V24H101.906ZM132.713 67.7365H140.32C144.362 67.7365 147.714 66.9555 150.371 65.3925C153.028 63.8294 155.01 61.6039 156.314 58.7172C157.619 55.8303 158.27 52.3915 158.27 48.404C158.27 44.4488 157.625 41.0444 156.336 38.1895C155.047 35.3185 153.122 33.1167 150.56 31.5855C147.998 30.0387 144.808 29.2636 140.99 29.2635H132.713V67.7365Z" fill="url(#paint0_linear_52_9)"/>
<defs>
<linearGradient id="paint0_linear_52_9" x1="158.907" y1="0.0085811" x2="63.4475" y2="99.444" gradientUnits="userSpaceOnUse">
<stop offset="0.378038" stop-color="white"/>
<stop offset="0.494725" stop-color="#FF5050"/>
<stop offset="0.622996" stop-color="#E1E1E1"/>
</linearGradient>
</defs>
</svg>
