<svg width="33" height="32" viewBox="0 0 33 32" fill="none" xmlns="http://www.w3.org/2000/svg">
<g clip-path="url(#clip0_115_479)">
<path d="M32.483 16.2993C32.483 14.9883 32.3741 14.0316 32.1385 13.0395H16.8186V18.9568H25.8111C25.6298 20.4273 24.6508 22.6419 22.4751 24.1301L22.4446 24.3282L27.2885 27.9951L27.6241 28.0278C30.7062 25.2463 32.483 21.1537 32.483 16.2993Z" fill="#4285F4"/>
<path d="M16.8188 31.8901C21.2244 31.8901 24.9228 30.4727 27.6243 28.0279L22.4753 24.1301C21.0975 25.0691 19.2482 25.7246 16.8188 25.7246C12.5039 25.7246 8.84163 22.9432 7.53614 19.0986L7.34479 19.1145L2.30806 22.9236L2.24219 23.1025C4.92541 28.3112 10.437 31.8901 16.8188 31.8901Z" fill="#34A853"/>
<path d="M7.53611 19.0986C7.19164 18.1065 6.99229 17.0434 6.99229 15.945C6.99229 14.8465 7.19164 13.7835 7.51799 12.7914L7.50886 12.5801L2.40901 8.70984L2.24215 8.7874C1.13627 10.9489 0.501709 13.3761 0.501709 15.945C0.501709 18.5139 1.13627 20.941 2.24215 23.1025L7.53611 19.0986Z" fill="#FBBC05"/>
<path d="M16.8188 6.16537C19.8827 6.16537 21.9495 7.45869 23.128 8.53948L27.7331 4.14571C24.9049 1.57679 21.2244 0 16.8188 0C10.437 0 4.92541 3.57875 2.24219 8.78742L7.51802 12.7915C8.84163 8.94693 12.5039 6.16537 16.8188 6.16537Z" fill="#EB4335"/>
</g>
<defs>
<clipPath id="clip0_115_479">
<rect width="32" height="32" fill="white" transform="translate(0.5)"/>
</clipPath>
</defs>
</svg>
